<?xml version="1.0" encoding="UTF-8"?>
<svg width="250px" height="100px" viewBox="0 0 250 100" version="1.1" xmlns="http://www.w3.org/2000/svg" xmlns:xlink="http://www.w3.org/1999/xlink">
    <title>Artboard</title>
    <defs>
        <filter id="filter-1">
            <feColorMatrix in="SourceGraphic" type="matrix" values="0 0 0 0 0.611765 0 0 0 0 0.858824 0 0 0 0 1.000000 0 0 0 1.000000 0"></feColorMatrix>
        </filter>
    </defs>
    <g id="Artboard" stroke="none" stroke-width="1" fill="none" fill-rule="evenodd">
        <g id="wning.tech" transform="translate(52.076172, 31.798828)" fill-rule="nonzero">
            <path d="M8.85058594,27.2011719 C8.88769531,27.1022135 9.4938151,25.4879557 10.6689453,22.3583984 C11.8440755,19.2288411 13.0501302,16.0250651 14.2871094,12.7470703 L14.2871094,12.7470703 L14.3242187,12.7470703 C15.734375,16.6559245 16.9187826,20.0143229 17.8774414,22.8222656 C18.8361003,25.6302083 19.3339844,27.0898438 19.3710938,27.2011719 L19.3710938,27.2011719 L21.6533203,27.2011719 C21.7027995,27.0651042 22.4264323,25.0426432 23.8242188,21.1337891 C25.2220052,17.2249349 26.7558594,13.2294922 28.4257812,9.14746094 L28.4257812,9.14746094 L25.8837891,8.12695312 L20.6328125,23.2675781 L20.5957031,23.2675781 L15.6044922,8.73925781 L13.2851562,8.73925781 L7.8671875,23.2675781 L7.83007812,23.2675781 L2.70898438,8.05273438 L0,9.25878906 C1.76888021,13.7985026 3.28417969,17.8372396 4.54589844,21.375 C5.80761719,24.9127604 6.48177083,26.8548177 6.56835938,27.2011719 L6.56835938,27.2011719 L8.85058594,27.2011719 Z M35.7734375,27.2011719 C35.7734375,27.1022135 35.7579753,26.0384115 35.7270508,24.0097656 C35.6961263,21.9811198 35.6806641,20.249349 35.6806641,18.8144531 C35.6806641,17.7135417 35.686849,16.4951172 35.6992188,15.1591797 C35.7092692,14.0737305 35.7152367,13.384332 35.7171211,13.0909843 L35.7177734,12.9511719 C36.8557943,12.2584635 37.9814453,11.6894531 39.0947266,11.2441406 C40.2080078,10.7988281 41.1419271,10.5761719 41.8964844,10.5761719 C43.1458333,10.5761719 44.0240885,10.8854167 44.53125,11.5039062 C45.0384115,12.1223958 45.3105469,13.1429036 45.3476562,14.5654297 C45.360026,15.1468099 45.3693034,16.0652669 45.3754883,17.3208008 C45.3799864,18.2339163 45.3828488,18.9851 45.3840756,19.5743519 L45.3839925,20.4596354 C45.3814155,21.0472005 45.3723958,22.1501736 45.3569336,23.7685547 C45.3383789,25.710612 45.3229167,26.8548177 45.3105469,27.2011719 L45.3105469,27.2011719 L48.2421875,27.2011719 C48.2421875,27.1145833 48.2267253,26.2270508 48.1958008,24.5385742 C48.1648763,22.8500977 48.1494141,21.4430339 48.1494141,20.3173828 C48.1494141,19.6123047 48.1586914,18.6938477 48.1772461,17.5620117 C48.1958008,16.4301758 48.2050781,15.0849609 48.2050781,13.5263672 C48.2050781,11.7945964 47.7257487,10.4308268 46.7670898,9.43505859 C45.808431,8.43929036 44.5374349,7.94140625 42.9541016,7.94140625 C42.1871745,7.94140625 41.2254232,8.13623047 40.0688477,8.52587891 C38.9122721,8.91552734 37.468099,9.60514323 35.7363281,10.5947266 L35.7363281,10.5947266 L35.7177734,10.5576172 L35.7363281,8.42382812 L32.8417969,8.42382812 C32.8789062,10.390625 32.9005534,12.2460938 32.9067383,13.9902344 C32.9129232,15.734375 32.9160156,17.2558594 32.9160156,18.5546875 L32.9158872,19.0451669 C32.9145176,21.6225349 32.9021906,23.5835535 32.8789062,24.9282227 C32.8541667,26.3569336 32.8417969,27.1145833 32.8417969,27.2011719 L32.8417969,27.2011719 L35.7734375,27.2011719 Z M58.2246094,4.82421875 L58.2246094,1.6328125 L54.9589844,1.6328125 L54.9589844,4.82421875 L58.2246094,4.82421875 Z M58.0576172,27.2011719 C58.0576172,27.1516927 58.0421549,26.2548828 58.0112305,24.5107422 C57.9841715,22.9846191 57.9689509,21.0228475 57.9655685,18.6254272 L57.9652786,17.1087265 C57.967308,16.0108109 57.9764404,14.7826742 57.9926758,13.4243164 C58.0112305,11.8719076 58.0328776,10.2050781 58.0576172,8.42382812 L58.0576172,8.42382812 L55.1259766,8.42382812 C55.1630859,10.4772135 55.1847331,12.2677409 55.190918,13.7954102 C55.1971029,15.3230794 55.2001953,16.7239583 55.2001953,17.9980469 L55.2000306,18.3418027 C55.1987131,19.7444931 55.1894907,21.4791917 55.1723633,23.5458984 C55.1538086,25.7848307 55.1383464,27.0032552 55.1259766,27.2011719 L55.1259766,27.2011719 L58.0576172,27.2011719 Z M67.9658203,27.2011719 C67.9658203,27.1022135 67.9503581,26.0384115 67.9194336,24.0097656 C67.8885091,21.9811198 67.8730469,20.249349 67.8730469,18.8144531 L67.8734255,18.3354393 C67.8749402,17.3630222 67.8809989,16.304269 67.8916016,15.1591797 C67.9024251,13.9902344 67.9085134,13.2806142 67.9098663,13.0303192 L67.9101562,12.9511719 C69.0481771,12.2584635 70.1738281,11.6894531 71.2871094,11.2441406 C72.4003906,10.7988281 73.3343099,10.5761719 74.0888672,10.5761719 C75.3382161,10.5761719 76.2164714,10.8854167 76.7236328,11.5039062 C77.2307943,12.1223958 77.5029297,13.1429036 77.5400391,14.5654297 C77.5524089,15.1468099 77.5616862,16.0652669 77.5678711,17.3208008 C77.5729315,18.3480558 77.5759217,19.1703658 77.5768417,19.7877308 L77.5770625,20.2520978 C77.576089,20.7622372 77.5668403,21.9343895 77.5493164,23.7685547 C77.5307617,25.710612 77.5152995,26.8548177 77.5029297,27.2011719 L77.5029297,27.2011719 L80.4345703,27.2011719 C80.4345703,27.1145833 80.4191081,26.2270508 80.3881836,24.5385742 C80.3572591,22.8500977 80.3417969,21.4430339 80.3417969,20.3173828 C80.3417969,19.6123047 80.3510742,18.6938477 80.3696289,17.5620117 C80.3881836,16.4301758 80.3974609,15.0849609 80.3974609,13.5263672 C80.3974609,11.7945964 79.9181315,10.4308268 78.9594727,9.43505859 C78.0008138,8.43929036 76.7298177,7.94140625 75.1464844,7.94140625 C74.3795573,7.94140625 73.417806,8.13623047 72.2612305,8.52587891 C71.1046549,8.91552734 69.6604818,9.60514323 67.9287109,10.5947266 L67.9287109,10.5947266 L67.9101562,10.5576172 L67.9287109,8.42382812 L65.0341797,8.42382812 C65.0712891,10.390625 65.0929362,12.2460938 65.0991211,13.9902344 C65.1039316,15.3467882 65.1068713,16.5686487 65.1079403,17.655816 L65.1078848,19.5212005 C65.1053167,21.8652546 65.0931181,23.6675954 65.0712891,24.9282227 C65.04946,26.18885 65.0372614,26.9270248 65.0346933,27.1427471 L65.0341797,27.2011719 L67.9658203,27.2011719 Z M87.7822266,35.6435547 C89.9345703,35.6435547 91.7652995,35.4858398 93.2744141,35.1704102 C94.7835286,34.8549805 96.0638021,34.4251302 97.1152344,33.8808594 C98.4511719,33.1634115 99.480957,32.2047526 100.20459,31.0048828 C100.928223,29.805013 101.290039,28.1474609 101.290039,26.0322266 C101.290039,24.8818359 101.283854,23.6139323 101.271484,22.2285156 C101.259115,20.843099 101.25293,19.4824219 101.25293,18.1464844 C101.25293,16.1796875 101.262207,14.1077474 101.280762,11.9306641 C101.296786,10.0504557 101.305891,8.88066702 101.308076,8.42129794 L101.308594,8.25683594 L101.308594,8.25683594 L99.1748047,8.25683594 C97.2698568,8.25683594 95.6463216,8.36507161 94.3041992,8.58154297 C92.9620768,8.79801432 91.7220052,9.18457031 90.5839844,9.74121094 C88.9882812,10.5205078 87.7141927,11.5719401 86.7617188,12.8955078 C85.8092448,14.2190755 85.3330078,15.7467448 85.3330078,17.4785156 C85.3330078,19.2102865 85.6731771,20.663737 86.3535156,21.8388672 C87.0338542,23.0139974 87.9182943,23.9664714 89.0068359,24.6962891 C90.1077474,25.4632161 91.4375,26.0229492 92.9960938,26.3754883 C94.5546875,26.7280273 96.069987,26.9042969 97.5419922,26.9042969 L97.5419922,26.9042969 L98.4326172,26.9042969 C98.4078776,28.1907552 98.1110026,29.2823893 97.5419922,30.1791992 C96.9729818,31.0760091 95.9648438,31.7965495 94.5175781,32.3408203 C93.577474,32.6871745 92.5322266,32.925293 91.3818359,33.0551758 C90.2314453,33.1850586 88.9326172,33.2623698 87.4853516,33.2871094 L87.4853516,33.2871094 L87.7822266,35.6435547 Z M98.4326172,24.5664062 L97.7460938,24.5664062 C96.6328125,24.5664062 95.5782878,24.4550781 94.5825195,24.2324219 C93.5867513,24.0097656 92.7115885,23.7190755 91.9570312,23.3603516 C90.84375,22.8284505 89.9562174,22.0800781 89.2944336,21.1152344 C88.6326497,20.1503906 88.3017578,18.9876302 88.3017578,17.6269531 C88.3017578,16.3033854 88.6357422,15.1158854 89.3037109,14.0644531 C89.9716797,13.0130208 90.9365234,12.2151693 92.1982422,11.6708984 C93.1507161,11.2626953 94.0568034,10.984375 94.9165039,10.8359375 C95.7762044,10.6875 96.78125,10.6132812 97.9316406,10.6132812 L97.9316406,10.6132812 L98.4140625,10.6132812 C98.4388021,12.0605469 98.4542643,13.4521484 98.4604492,14.7880859 C98.4652597,15.8271484 98.4681994,16.7315177 98.4692684,17.5011936 L98.4694975,18.6803325 C98.4682758,20.1311105 98.4621672,21.4035192 98.4511719,22.4975586 C98.4388021,23.7283529 98.4326172,24.4179688 98.4326172,24.5664062 L98.4326172,24.5664062 Z M111.458008,27.2011719 L111.458008,23.2490234 L107.728516,23.2490234 L107.728516,27.2011719 L111.458008,27.2011719 Z" id="wning." fill="#000000"></path>
            <path d="M126.264648,27.3125 C126.512044,27.3125 126.805827,27.3063151 127.145996,27.2939453 C127.486165,27.2815755 127.699544,27.2692057 127.786133,27.2568359 L127.786133,27.2568359 L128.120117,24.9003906 C128.033529,24.9003906 127.835612,24.9034831 127.526367,24.909668 C127.217122,24.9158529 126.951172,24.9189453 126.728516,24.9189453 C124.922526,24.9189453 123.586589,24.5633138 122.720703,23.8520508 C121.854818,23.1407878 121.421875,21.9811198 121.421875,20.3730469 L121.421875,20.3730469 L121.422648,15.4344076 C121.425225,14.8262261 121.434245,13.9861111 121.449707,12.9140625 C121.465788,11.7991319 121.4749,11.0697815 121.477044,10.7260113 L121.477539,10.5947266 L128.120117,10.5947266 L128.120117,8.42382812 L121.477539,8.42382812 L121.477539,4.02636719 L118.787109,4.02636719 L118.787109,8.42382812 L115.50293,8.42382812 L115.50293,10.5947266 L118.620117,10.5947266 C118.620117,12.9202474 118.61084,14.8684896 118.592285,16.4394531 C118.57373,18.0104167 118.564453,19.4824219 118.564453,20.8554688 C118.564453,23.0449219 119.213867,24.668457 120.512695,25.7260742 C121.811523,26.7836914 123.728841,27.3125 126.264648,27.3125 Z M142.481445,27.2753906 C143.236003,27.2753906 143.891602,27.2599284 144.448242,27.2290039 C145.004883,27.1980794 145.332682,27.1764323 145.431641,27.1640625 L145.431641,27.1640625 L145.765625,24.6962891 C145.629557,24.7086589 145.267741,24.7333984 144.680176,24.7705078 C144.092611,24.8076172 143.446289,24.8261719 142.741211,24.8261719 C141.454753,24.8261719 140.353841,24.7117513 139.438477,24.4829102 C138.523112,24.254069 137.706706,23.9108073 136.989258,23.453125 C135.863607,22.7356771 135.028646,21.8295898 134.484375,20.7348633 C133.940104,19.6401367 133.661784,18.4371745 133.649414,17.1259766 L133.649414,17.1259766 L147.064453,17.1259766 C147.052083,15.5055339 146.854167,14.1170247 146.470703,12.9604492 C146.08724,11.8038737 145.530599,10.8297526 144.800781,10.0380859 C144.145182,9.33300781 143.37207,8.80729167 142.481445,8.4609375 C141.59082,8.11458333 140.570312,7.94140625 139.419922,7.94140625 C138.257161,7.94140625 137.134603,8.1702474 136.052246,8.62792969 C134.969889,9.08561198 134.063802,9.73502604 133.333984,10.5761719 C132.492839,11.5533854 131.861979,12.6110026 131.441406,13.7490234 C131.020833,14.8870443 130.810547,16.1611328 130.810547,17.5712891 C130.810547,19.0061849 131.09196,20.3111979 131.654785,21.4863281 C132.217611,22.6614583 132.901042,23.6263021 133.705078,24.3808594 C134.645182,25.2838542 135.848145,25.9920247 137.313965,26.5053711 C138.779785,27.0187174 140.502279,27.2753906 142.481445,27.2753906 Z M144.188477,15.0478516 L133.87207,15.0478516 C134.230794,13.538737 134.874023,12.3419596 135.801758,11.4575195 C136.729492,10.5730794 137.886068,10.1308594 139.271484,10.1308594 C140.656901,10.1308594 141.773275,10.5668945 142.620605,11.4389648 C143.467936,12.3110352 143.99056,13.5139974 144.188477,15.0478516 L144.188477,15.0478516 Z M164.116211,27.2753906 L164.338867,24.7890625 L164.338867,24.7890625 L163.169922,24.7890625 C161.957682,24.7890625 160.807292,24.6962891 159.71875,24.5107422 C158.630208,24.3251953 157.652995,24.0221354 156.787109,23.6015625 C155.673828,23.0696615 154.780111,22.3120117 154.105957,21.3286133 C153.431803,20.3452148 153.094727,19.1298828 153.094727,17.6826172 C153.094727,16.4703776 153.453451,15.3323568 154.170898,14.2685547 C154.888346,13.2047526 155.859375,12.4254557 157.083984,11.9306641 C157.999349,11.5472005 158.942546,11.2719727 159.913574,11.1049805 C160.884603,10.9379883 162.056641,10.8544922 163.429688,10.8544922 L163.429688,10.8544922 L164.004883,10.8544922 L163.856445,8.36816406 L163.856445,8.36816406 L163.095703,8.36816406 C161.438151,8.36816406 159.833171,8.55680339 158.280762,8.93408203 C156.728353,9.31136068 155.395508,9.85872396 154.282227,10.5761719 C153.045247,11.3678385 152.043294,12.3852539 151.276367,13.628418 C150.50944,14.871582 150.125977,16.2353516 150.125977,17.7197266 C150.125977,19.3772786 150.546549,20.8802083 151.387695,22.2285156 C152.228841,23.5768229 153.397786,24.6591797 154.894531,25.4755859 C155.995443,26.0693359 157.238607,26.5177409 158.624023,26.8208008 C160.00944,27.1238607 161.5,27.2753906 163.095703,27.2753906 L163.095703,27.2753906 L164.116211,27.2753906 Z M172.150391,27.2011719 L172.076172,12.9511719 C173.300781,12.2213542 174.463542,11.6430664 175.564453,11.2163086 C176.665365,10.7895508 177.568359,10.5761719 178.273438,10.5761719 C179.522786,10.5761719 180.401042,10.8854167 180.908203,11.5039062 C181.415365,12.1223958 181.6875,13.1429036 181.724609,14.5654297 C181.736979,15.1468099 181.746257,16.0652669 181.752441,17.3208008 C181.75694,18.2339163 181.759802,18.9851 181.761029,19.5743519 L181.760852,20.5425109 C181.758155,21.2157443 181.749167,22.3189242 181.733887,23.8520508 C181.715332,25.7137044 181.69987,26.8300781 181.6875,27.2011719 L181.6875,27.2011719 L184.619141,27.2011719 C184.606771,26.656901 184.588216,25.6549479 184.563477,24.1953125 C184.538737,22.7356771 184.526367,21.4430339 184.526367,20.3173828 C184.526367,19.6123047 184.535645,18.6938477 184.554199,17.5620117 C184.572754,16.4301758 184.582031,15.0849609 184.582031,13.5263672 C184.582031,11.7945964 184.102702,10.4308268 183.144043,9.43505859 C182.185384,8.43929036 180.914388,7.94140625 179.331055,7.94140625 C178.527018,7.94140625 177.562174,8.13313802 176.436523,8.51660156 C175.310872,8.9000651 173.863607,9.58658854 172.094727,10.5761719 L172.094727,10.5761719 L172.076172,10.5576172 L172.150391,0 L169.21875,0 C169.255859,2.83268229 169.277507,5.34065755 169.283691,7.52392578 C169.289876,9.70719401 169.292969,11.516276 169.292969,12.9511719 L169.29286,13.3710804 C169.291773,15.5059566 169.282532,18.1708374 169.265137,21.3657227 C169.246582,24.7736003 169.23112,26.71875 169.21875,27.2011719 L169.21875,27.2011719 L172.150391,27.2011719 Z" id="tech" fill="#9CDBFF"></path>
        </g>
        <path d="M23.0126953,59.3154297 C23.2477214,59.3154297 23.563151,59.3123372 23.9589844,59.3061523 C24.3548177,59.2999674 24.5898438,59.296875 24.6640625,59.296875 C24.6516927,57.7753906 24.6362305,55.9601237 24.6176758,53.8510742 C24.5991211,51.7420247 24.5898438,49.382487 24.5898438,46.7724609 C24.5898438,43.4697266 24.6022135,40.2102865 24.6269531,36.9941406 C24.6516927,33.7779948 24.6640625,32.046224 24.6640625,31.7988281 L24.6640625,31.7988281 L21.7324219,31.7988281 L21.7880859,40.3525391 C20.476888,40.3525391 19.1409505,40.4793294 17.7802734,40.7329102 C16.4195964,40.9864909 15.2135417,41.3606771 14.1621094,41.8554688 C12.3684896,42.671875 10.9954427,43.8068034 10.0429688,45.2602539 C9.09049479,46.7137044 8.61425781,48.3805339 8.61425781,50.2607422 C8.61425781,51.8688151 9.04101562,53.3284505 9.89453125,54.6396484 C10.7480469,55.9508464 11.9973958,57.0022786 13.6425781,57.7939453 C14.9042969,58.4000651 16.1969401,58.8051758 17.5205078,59.0092773 C18.8440755,59.2133789 20.6748047,59.3154297 23.0126953,59.3154297 Z M21.7509766,56.9589844 L21.2685547,56.9589844 C20.0934245,56.9589844 18.9708659,56.8445638 17.9008789,56.6157227 C16.8308919,56.3868815 15.8691406,56.0436198 15.015625,55.5859375 C14.0384115,55.0664062 13.2220052,54.3489583 12.5664062,53.4335938 C11.9108073,52.5182292 11.5830078,51.4235026 11.5830078,50.1494141 C11.5830078,48.726888 11.9231771,47.4868164 12.6035156,46.4291992 C13.2838542,45.371582 14.242513,44.5582682 15.4794922,43.9892578 C16.2587891,43.6305339 17.1958008,43.3460286 18.2905273,43.1357422 C19.3852539,42.9254557 20.5511068,42.8203125 21.7880859,42.8203125 L21.7880859,42.8203125 L21.7880859,46.7539273 C21.7874829,50.0528189 21.781312,52.5298627 21.7695312,54.1850586 C21.7571615,55.9230143 21.7509766,56.8476562 21.7509766,56.9589844 L21.7509766,56.9589844 Z" id="d" fill="#000000" fill-rule="nonzero"></path>
        <g filter="url(#filter-1)" id="Globe_icon_4">
            <g transform="translate(29.000000, 39.000000)">
                <path d="M11.77995,21 C11.75538,21 11.696412,20.975283 11.671863,20.945673 C12.411336,20.44686 13.104126,19.866588 13.733055,19.175142 C14.533953,18.288606 15.165318,17.323068 15.664026,16.298247 L19.292595,16.298247 C18.911802,16.905735 18.440121,17.458875 17.946306,17.98482 C16.268364,19.673955 14.094171,20.725908 11.77995,21 M19.626705,11.01114 L21,11.01114 C20.945946,12.480447 20.562696,13.890534 19.928874,15.189447 L16.15782,15.189447 C16.654071,13.860903 16.926777,12.450837 16.983267,11.01114 L18.526095,11.01114 M18.526095,9.934533 L16.983267,9.934533 C16.899729,8.467641 16.595103,7.00329 16.047255,5.615442 L17.147865,5.615442 L18.223905,5.615442 L19.847793,5.615442 C20.533212,6.946464 20.918919,8.410878 21,9.934533 L19.626705,9.934533 M17.147865,4.538856 L15.553461,4.538856 C15.08178,3.597951 14.477421,2.684283 13.762518,1.881684 C13.128696,1.190238 12.411336,0.607488 11.671863,0.111153 C11.696433,0.081459 11.725917,0.081459 11.725917,0.081459 L11.696412,0 C14.064687,0.274092 16.23888,1.326045 17.946306,3.015201 C18.41553,3.486819 18.830721,3.983217 19.184487,4.538856 L18.223905,4.538856 M14.77959,5.615442 C15.386406,6.97368 15.715602,8.43801 15.799119,9.904839 L10.900449,9.904839 L10.900449,5.615442 L14.77959,5.615442 Z M14.231742,4.509141 L10.900449,4.509141 L10.900449,0.995148 C11.615352,1.464351 12.278658,2.017491 12.883017,2.684283 C13.406295,3.264555 13.843599,3.872043 14.231742,4.509141 M11.947005,15.189447 L10.870965,15.189447 L10.870965,11.040834 L15.772113,11.040834 C15.715602,12.450837 15.413433,13.860924 14.863128,15.189447 L13.045158,15.189447 M13.045158,16.298226 L14.33985,16.298226 C13.929573,17.019282 13.430865,17.710707 12.853533,18.345327 C12.246717,19.009641 11.585868,19.592391 10.870965,20.059116 L10.870965,16.298226 L11.947005,16.298226 M6.603639,4.538835 C6.964776,3.901653 7.429086,3.264555 7.925358,2.711415 C8.505147,2.076795 9.111942,1.548372 9.799839,1.106301 L9.799839,4.538835 L6.603639,4.538835 L6.603639,4.538835 Z M6.466068,16.298226 L9.799839,16.298226 L9.799839,19.980135 C9.111963,19.535649 8.505147,18.982509 7.925358,18.345327 C7.350483,17.737923 6.878802,17.019282 6.466068,16.298226 M6.797721,9.934533 L5.011692,9.934533 C5.092773,8.467641 5.424426,7.00329 6.028785,5.645136 L9.799839,5.645136 L9.799839,9.934533 L7.898352,9.934533 M7.898331,11.040834 L9.799818,11.040834 L9.799818,15.189447 L5.91822,15.189447 C5.365458,13.890534 5.063289,12.450837 5.011692,11.040834 L6.797721,11.040834 M9.052995,0.027132 L9.052995,0.054327 C9.052995,0.081459 9.084936,0.081459 9.111963,0.081459 C8.370033,0.577857 7.682157,1.190238 7.048314,1.881684 C6.30147,2.684283 5.697132,3.568341 5.230344,4.509141 L1.815513,4.509141 C2.20122,3.983196 2.613933,3.486798 3.056151,3.01518 C4.707066,1.355739 6.797721,0.330918 9.052995,0.027132 M3.056151,17.984799 C2.532873,17.458854 2.090655,16.878498 1.707405,16.268595 L5.092752,16.268595 C5.61603,17.323047 6.249852,18.288564 7.048293,19.147905 C7.682115,19.839351 8.370012,20.446818 9.111942,20.945631 C9.084915,20.945631 9.052974,20.975241 9.052974,20.975241 C6.797721,20.671581 4.707066,19.644261 3.056151,17.984799 M1.238181,9.904839 L0,9.904839 C0.083538,8.410878 0.496251,6.946464 1.154664,5.615442 L4.734093,5.615442 C4.186245,7.00329 3.881619,8.43801 3.795624,9.904839 L2.309307,9.904839 M2.309307,11.01114 L3.795624,11.01114 C3.854592,12.450837 4.127277,13.860903 4.621071,15.189447 L1.073583,15.189447 C0.439761,13.890534 0.083538,12.480447 0,11.01114 L1.238181,11.01114" id="Shape" fill="#000000" fill-rule="nonzero"></path>
            </g>
        </g>
    </g>
</svg>