<svg version="1" xmlns="http://www.w3.org/2000/svg" width="933.333" height="933.333" viewBox="0 0 700.000000 700.000000"><path d="M105.9 181.9c0 3.1 0 10.9.1 17.3.1 10.7-.1 11.8-1.7 11.9-11.7.5-23.9 3.5-31.6 7.7-10 5.4-16.7 14.6-18.8 25.6-4.1 22.6 12.3 40.6 39.4 43.2 10.3 1 20.9 1.1 22.7.3 1.3-.6 1.5-7.8 1.5-56.1v-55.3l-5.8-.1-5.7-.1-.1 5.6zm.1 68.2v29.1l-7.2-.7c-20.2-1.9-32.2-11.1-33.4-25.8-.9-11.3 5.5-22.1 15.9-26.7 4.9-2.2 15.5-4.5 21.5-4.8l3.2-.1v29zM454.9 182.2c-.4 1-.5 10.5-.1 11.5.3.9 2.6 1.3 6.8 1.3h6.4v-13h-6.5c-3.6 0-6.5.1-6.6.2zM166.9 205.5c-9.1 2.4-16.7 7.5-23.3 15.2l-1.9 2.3h14.1l3.2-5c1.8-2.8 5.5-7.1 8.4-9.5 2.8-2.5 4.8-4.5 4.6-4.4-.3 0-2.6.7-5.1 1.4zM188.7 209.9c3.2 3.2 6.7 7.4 7.8 9.4l2 3.7h7.2c4 0 7.3-.4 7.3-.9s-2.6-3.3-5.7-6.2c-6.1-5.5-12.9-9.1-20.1-10.8l-4.4-.9 5.9 5.7zM393.8 210.4c-3.6 1.3-9.1 3.7-12.2 5.4l-5.6 3V210h-11.7v77h11.8l-.2-24.8c-.2-37.7-1-33.2 6.4-37 12.8-6.6 21.4-7.9 27.4-4.2 5 3 5.6 6.8 5.7 38.4l.1 27.9 3.8-.1c8.7-.1 7.7 3.6 7.7-30.5 0-16.6-.4-31.7-1-33.6-3.7-12.9-16.8-18.1-32.2-12.7zM528.3 209.5c-2.9.8-8.4 3-12.3 5-3.9 2-7.5 3.3-7.9 3.1-.5-.3-.7-2.1-.4-4.1l.3-3.5h-11.9v76.9l2.2.3c1.2.2 3.8.1 5.8 0l3.7-.4-.2-29.1-.1-29.2 8.6-4.3c13.8-6.9 24.9-6.8 28.7.1 1.5 2.8 1.7 7 2 32.9l.3 29.8h11.8v-28.8c0-15.8-.4-31-1-33.8-2.5-12.9-14.5-18.9-29.6-14.9zM169.1 213.8c-2.7 2.7-5.4 5.8-6 7-1.1 2.2-1 2.2 5.4 2.2h6.5v-7c0-3.9-.2-7-.5-7s-2.8 2.2-5.4 4.8zM179.8 209.2c0 .2-.2 3.3-.3 7l-.1 6.8h13.8l-1.7-2.6c-.9-1.4-2.4-3.4-3.3-4.5-1.8-2.2-8.1-7.2-8.4-6.7zM234.5 211.2c-2.2 1.1-4.2 2.2-4.4 2.4-.4.4 3.1 10.2 5.9 16.9 1.7 4 13.6 36.7 18.2 49.8l2.3 6.8 4.9-.3 4.8-.3 10.7-28.7c5.8-15.8 10.9-28.8 11.2-28.8.6 0 9.8 25.4 16.6 46.2l3.8 11.7 5 .1h5l5.9-16.8c3.3-9.2 8.3-23 11.3-30.7 3-7.7 6.5-16.8 7.8-20.3l2.4-6.3-4.5-1.9c-2.5-1.1-4.9-2-5.3-2-.4 0-1.7 2.8-2.8 6.2-1.2 3.5-5.7 16.6-10.1 29.3-4.3 12.6-8.1 23.7-8.4 24.5-.7 2.1-1.9-1.1-12.4-31.6l-8.9-26.1-4.7-.2-4.7-.1-2.1 5.8c-1.2 3.1-6 16-10.7 28.7-4.7 12.6-8.8 23.4-9.2 23.8-.4.4-4.5-10.4-9-24-11.2-33.6-12.2-36.3-13.5-36.3-.6.1-2.9 1-5.1 2.2zM616.9 210.6c-11.3 1.7-20.7 6.1-27.7 13.1-7.7 7.6-9.6 12.6-9.7 24.3 0 8.5.3 10.1 2.9 15.3 6.5 13.1 20.7 20.9 40.6 22.3 10.3.7 9.9.5 8.9 5.8-2.4 13.1-15.2 20-38.7 20.7l-5.3.2.5 4.1c.3 2.3.5 4.5.5 5 .1.8 15.2.2 19.6-.8 9.1-2 12.1-2.9 17-5.2 3.1-1.5 7.4-4.4 9.6-6.6 8.9-8.8 9.4-12.3 9.4-60.3l-.1-39-9.5-.1c-5.2 0-13.3.5-18 1.2zm15.9 36.9c0 31.8.8 28.9-7.3 28.6-10.8-.4-22.8-5.2-28-11.4-4.5-5.2-6.4-11.1-6-18.5.9-16.4 14.5-26.6 36.1-27.1l5.1-.1.1 28.5zM455.5 248.5V287h12v-77h-12.1l.1 38.5zM138.4 229.5c-1.4 2.2-4.6 14.6-3.9 15.4 1 .9 15.5.6 15.6-.4.1-1.2.5-3.7 1.5-8.5.7-3.5.9-4.3 1.5-7 .3-1.1-1-1.4-6.5-1.5-5.8 0-7.1.3-8.2 2zM160.7 227.8c-1.7.4-4.4 7.3-5.1 13.7l-.5 4h19.4l.3-8.8c.1-4.8-.1-8.7-.5-8.8-2.4-.3-12.2-.4-13.6-.1zM179.9 228c-.1.3-.2 4.2-.4 8.7-.2 7.1 0 8.3 1.4 8.4 1.9.1 17.3.1 18.2 0 1-.1-.1-6.9-2-12.5l-1.6-5-7.7-.1c-4.3-.1-7.8.1-7.9.5zM201.4 228.1c-.2.4 0 2 .6 3.5.5 1.6 1.4 5.4 2 8.4l1 5.5h8.1l8.1.1-.7-5.1c-.3-2.7-1.4-6.8-2.4-9l-1.7-3.9-7.3-.1c-4 0-7.4.2-7.7.6zM136.4 249.8c-1.8.3-2 .7-1.4 4.5.4 2.3 1.3 6.1 2 8.4l1.3 4.3h14.9l-.7-2.8c-1-4-2-9.5-2.4-13.4-.1-.7-10.4-1.5-13.7-1zM207.4 250c-2.5.4-2.9 1-3.1 4-.1 1.9-.9 5.6-1.7 8.2l-1.4 4.8h7.9c7.7 0 8-.1 9-2.8 1.5-3.9 3.3-13.2 2.6-13.8-.7-.7-9.8-1-13.3-.4zM155.5 254.7c.4 2.6 1.2 6.3 1.8 8.2l1.2 3.6 8.3.3 8.2.3V250h-20.2l.7 4.7zM179.2 258.5v8.5h8.3c9.1 0 9.7-.4 11-8.7.3-2.1.8-4.8 1.1-6.1.4-2.2.3-2.2-9.9-2.2h-10.4l-.1 8.5zM142 272.2c0 1.4 7.3 8.9 11.4 11.7 4 2.7 14.5 7.1 16.9 7.1.7 0-.9-1.9-3.4-4.3-2.5-2.3-6.2-6.7-8.2-9.7l-3.7-5.5h-6.5c-3.6 0-6.5.3-6.5.7zM161.5 271.8c-.7.8 6.5 9.8 10 12.5l3.6 2.9-.3-7.8-.3-7.8h-6.3c-3.5-.1-6.5.1-6.7.2zM180.8 271.8c-1.3.2-1.6 1.8-1.6 7.8 0 4 .4 7.4.8 7.4 1.2 0 13-12.9 13-14.3 0-1.1-8-1.7-12.2-.9zM199.5 272.5c-.7.5-2.6 3-4.3 5.5-1.6 2.5-5.1 6.5-7.7 8.9l-4.7 4.4 3.8-.7c7.3-1.4 15.9-6.2 21.8-12.1 3.2-3.1 5.5-5.9 5.2-6.3-1-1-12.9-.7-14.1.3zM341.8 342.2c-.8 1.3-.2 15.8.6 16.1.6.2 4 .3 7.6.2l6.5-.1.1-8.2.2-8.2h-7.4c-4.1 0-7.5.1-7.6.2zM453.7 431l.1 72.5 7.7.3 7.6.3-.1-34.3c0-18.9-.1-36.2 0-38.4v-4.1l9.3-4.6c17.9-9 29.9-9.9 36.4-3 4.3 4.5 4.7 8.7 4.7 47.5l.1 36.8h15.1l-.1-40.3c-.1-30.7-.4-41.1-1.5-44.2-3.9-11.7-13.4-18.5-25.8-18.5-7 0-16.9 3-27.8 8.5l-10.4 5.2v-4.6c-.1-2.5 0-15.2 0-28.3l.1-23.6-7.8.1-7.8.1.2 72.6zM184.9 381.7c-.1.5-.1 5.6 0 11.5l.1 10.8h-17v11.6l7.9-.1 7.9-.1-.1 30.6c0 25.5.2 31.4 1.6 36 2.8 9.5 9.3 16.1 19.2 19.5 6.8 2.3 26.5 3.4 26.5 1.4 0-.8.3-3.7.6-6.6l.6-5.1-7.5-.1c-13.5-.1-21.4-4.4-24.9-13.6-1.3-3.3-1.5-9.1-1.4-32.2 0-15.5.5-28.5.9-29 .5-.4 8.1-.8 17-.8h16.1l.1-5.5v-5.5l-17-.5-17-.5.1-11.3V381h-6.8c-3.7 0-6.9.3-6.9.7zM284.5 404.5c-12.4 2.9-23.6 11.9-29.3 23.7-13.2 26.8-3.5 56.9 22 68.7 11.3 5.3 16.8 6.3 34.5 6.7 17 .3 15.6 1 16.8-7.9l.6-4.7h-13.3c-18.9 0-28.4-2.6-38.2-10.3-6.8-5.4-11.6-15-12.9-26l-.5-3.7h72l-.7-6.8c-1.3-13.6-4.2-21.3-10.7-28.7-4.4-5-10.9-9.2-16.6-10.7-5.6-1.5-18.1-1.6-23.7-.3zm20.3 12.4c7 3.6 12.2 10.8 13.7 19.1l.6 3.6-26.3-.1c-25.7 0-26.3-.1-26-2 1.2-6.7 8.6-17.1 14.3-20.1 6.9-3.5 17.3-3.8 23.7-.5zM411.7 403.6c-.1.1-2.7.5-5.7.8-6.5.8-19.2 4.2-23.5 6.3-19.2 9.6-29.6 24.7-29.5 43.1.2 29.8 27.8 50.4 66.9 49.8l7.4-.1.4-4.5c.1-2.5.5-5.3.7-6.3.3-1.1-.2-1.7-1.2-1.8-11-.4-19.2-.9-21.2-1.3-13.4-2.8-20.4-5.7-26.1-10.9-7.8-7-11-14.5-11-25.6 0-11.3 5.4-21.3 14.7-27.5 8.1-5.3 21.2-8.6 36.1-9l6.8-.2-.2-4c0-2.1-.2-5.2-.2-6.7l-.1-2.8-7.1.3c-3.8.1-7.1.3-7.2.4z"/></svg>